<svg className="line-drawing" width="213.04000244140624px" height="122.75999755859375px" xmlns="http://www.w3.org/2000/svg" viewBox="143.47999877929686 13.620001220703124 213.04000244140624 122.75999755859375" style="background: rgba(0, 0, 0, 0) none repeat scroll 0% 0%;" preserveAspectRatio="xMidYMid"><defs><linearGradient id="editing-outline-gradient" x1="-0.5" x2="1.5" y1="0.5" y2="0.5"><stop offset="0" stop-color="#d0f4ea"></stop><stop offset="1" stop-color="#d0f4ea"></stop></linearGradient><filter id="editing-outline" x="-100%" y="-100%" width="300%" height="300%"><feMorphology in="SourceGraphic" operator="dilate" radius="1" result="outline"></feMorphology><feComposite operator="out" in="outline" in2="SourceAlpha"></feComposite></filter></defs><g filter="url(#editing-outline)"><g transform="translate(177.83985137939453, 98.67968368530273)"><path d="M36.42 0L5.70 0L5.70-45.44L10.18-45.44L10.18-3.97L36.42-3.97L36.42 0ZM46.46 0L42.11 0L42.11-33.34L46.46-33.34L46.46 0ZM46.46-40.32L42.11-40.32L42.11-46.72L46.46-46.72L46.46-40.32ZM67.14 0.64L67.14 0.64L67.14 0.64Q63.23 0.64 59.52-0.64L59.52-0.64L59.52-0.64Q55.81-1.92 53.12-4.35L53.12-4.35L55.10-7.30L55.10-7.30Q57.92-4.99 60.83-3.84L60.83-3.84L60.83-3.84Q63.74-2.69 67.07-2.69L67.07-2.69L67.07-2.69Q71.10-2.69 73.50-4.32L73.50-4.32L73.50-4.32Q75.90-5.95 75.90-8.96L75.90-8.96L75.90-8.96Q75.90-10.37 75.26-11.30L75.26-11.30L75.26-11.30Q74.62-12.22 73.38-12.93L73.38-12.93L73.38-12.93Q72.13-13.63 70.24-14.18L70.24-14.18L70.24-14.18Q68.35-14.72 65.86-15.30L65.86-15.30L65.86-15.30Q62.98-16 60.86-16.70L60.86-16.70L60.86-16.70Q58.75-17.41 57.38-18.30L57.38-18.30L57.38-18.30Q56.00-19.20 55.33-20.51L55.33-20.51L55.33-20.51Q54.66-21.82 54.66-23.81L54.66-23.81L54.66-23.81Q54.66-26.30 55.65-28.22L55.65-28.22L55.65-28.22Q56.64-30.14 58.34-31.39L58.34-31.39L58.34-31.39Q60.03-32.64 62.30-33.28L62.30-33.28L62.30-33.28Q64.58-33.92 67.14-33.92L67.14-33.92L67.14-33.92Q70.98-33.92 74.11-32.67L74.11-32.67L74.11-32.67Q77.25-31.42 79.17-29.38L79.17-29.38L77.06-26.82L77.06-26.82Q75.20-28.74 72.54-29.70L72.54-29.70L72.54-29.70Q69.89-30.66 67.01-30.66L67.01-30.66L67.01-30.66Q65.28-30.66 63.81-30.30L63.81-30.30L63.81-30.30Q62.34-29.95 61.22-29.18L61.22-29.18L61.22-29.18Q60.10-28.42 59.46-27.23L59.46-27.23L59.46-27.23Q58.82-26.05 58.82-24.45L58.82-24.45L58.82-24.45Q58.82-23.10 59.26-22.27L59.26-22.27L59.26-22.27Q59.71-21.44 60.74-20.83L60.74-20.83L60.74-20.83Q61.76-20.22 63.33-19.74L63.33-19.74L63.33-19.74Q64.90-19.26 67.14-18.75L67.14-18.75L67.14-18.75Q70.34-17.98 72.77-17.22L72.77-17.22L72.77-17.22Q75.20-16.45 76.83-15.42L76.83-15.42L76.83-15.42Q78.46-14.40 79.30-12.93L79.30-12.93L79.30-12.93Q80.13-11.46 80.13-9.34L80.13-9.34L80.13-9.34Q80.13-4.74 76.61-2.05L76.61-2.05L76.61-2.05Q73.09 0.64 67.14 0.64ZM102.08-5.12L103.23-1.60L103.23-1.60Q102.85-1.41 102.11-1.09L102.11-1.09L102.11-1.09Q101.38-0.77 100.42-0.45L100.42-0.45L100.42-0.45Q99.46-0.13 98.24 0.13L98.24 0.13L98.24 0.13Q97.02 0.38 95.68 0.38L95.68 0.38L95.68 0.38Q94.27 0.38 92.99 0L92.99 0L92.99 0Q91.71-0.38 90.75-1.18L90.75-1.18L90.75-1.18Q89.79-1.98 89.22-3.20L89.22-3.20L89.22-3.20Q88.64-4.42 88.64-6.02L88.64-6.02L88.64-29.89L84.03-29.89L84.03-33.34L88.64-33.34L88.64-44.61L92.99-44.61L92.99-33.34L100.67-33.34L100.67-29.89L92.99-29.89L92.99-7.23L92.99-7.23Q93.12-5.38 94.30-4.51L94.30-4.51L94.30-4.51Q95.49-3.65 97.02-3.65L97.02-3.65L97.02-3.65Q98.88-3.65 100.29-4.26L100.29-4.26L100.29-4.26Q101.70-4.86 102.08-5.12L102.08-5.12ZM122.05 0.64L122.05 0.64L122.05 0.64Q118.40 0.64 115.39-0.74L115.39-0.74L115.39-0.74Q112.38-2.11 110.18-4.48L110.18-4.48L110.18-4.48Q107.97-6.85 106.75-9.98L106.75-9.98L106.75-9.98Q105.54-13.12 105.54-16.58L105.54-16.58L105.54-16.58Q105.54-20.10 106.78-23.23L106.78-23.23L106.78-23.23Q108.03-26.37 110.24-28.74L110.24-28.74L110.24-28.74Q112.45-31.10 115.46-32.51L115.46-32.51L115.46-32.51Q118.46-33.92 122.05-33.92L122.05-33.92L122.05-33.92Q125.63-33.92 128.67-32.51L128.67-32.51L128.67-32.51Q131.71-31.10 133.92-28.74L133.92-28.74L133.92-28.74Q136.13-26.37 137.38-23.23L137.38-23.23L137.38-23.23Q138.62-20.10 138.62-16.58L138.62-16.58L138.62-16.58Q138.62-13.12 137.41-9.98L137.41-9.98L137.41-9.98Q136.19-6.85 133.98-4.48L133.98-4.48L133.98-4.48Q131.78-2.11 128.74-0.74L128.74-0.74L128.74-0.74Q125.70 0.64 122.05 0.64ZM109.95-16.51L109.95-16.51L109.95-16.51Q109.95-13.70 110.91-11.30L110.91-11.30L110.91-11.30Q111.87-8.90 113.50-7.07L113.50-7.07L113.50-7.07Q115.14-5.25 117.34-4.22L117.34-4.22L117.34-4.22Q119.55-3.20 122.05-3.20L122.05-3.20L122.05-3.20Q124.54-3.20 126.75-4.26L126.75-4.26L126.75-4.26Q128.96-5.31 130.62-7.14L130.62-7.14L130.62-7.14Q132.29-8.96 133.25-11.39L133.25-11.39L133.25-11.39Q134.21-13.82 134.21-16.64L134.21-16.64L134.21-16.64Q134.21-19.39 133.25-21.86L133.25-21.86L133.25-21.86Q132.29-24.32 130.62-26.14L130.62-26.14L130.62-26.14Q128.96-27.97 126.75-29.02L126.75-29.02L126.75-29.02Q124.54-30.08 122.05-30.08L122.05-30.08L122.05-30.08Q119.55-30.08 117.38-29.02L117.38-29.02L117.38-29.02Q115.20-27.97 113.54-26.11L113.54-26.11L113.54-26.11Q111.87-24.26 110.91-21.79L110.91-21.79L110.91-21.79Q109.95-19.33 109.95-16.51Z" fill="url(#editing-outline-gradient)"></path></g></g><style>text {
  font-size: 64px;
  font-family: Arial Black;
  dominant-baseline: central;
  text-anchor: middle;
}</style></svg>